Alegreya Sans-Light Italic.ufo
<glyph name="ampersand" format="1">
  <advance width="618"/>
  <unicode hex="0026"/>
  <outline>
    <contour>
      <point x="199" y="646"/>
      <point x="125" y="580"/>
      <point x="125" y="477" type="curve" smooth="yes"/>
      <point x="125" y="410"/>
      <point x="156" y="360"/>
      <point x="210" y="335" type="curve"/>
      <point x="210" y="331" type="line"/>
      <point x="113" y="288"/>
      <point x="60" y="224"/>
      <point x="60" y="145" type="curve" smooth="yes"/>
      <point x="60" y="52.9999"/>
      <point x="135" y="-7"/>
      <point x="260" y="-7" type="curve" smooth="yes"/>
      <point x="411" y="-7"/>
      <point x="495" y="81"/>
      <point x="495" y="200" type="curve" smooth="yes"/>
      <point x="495" y="246"/>
      <point x="482" y="288"/>
      <point x="461" y="319" type="curve"/>
      <point x="462" y="323" type="line"/>
      <point x="643" y="332" type="line"/>
      <point x="655" y="370" type="line"/>
      <point x="650" y="377" type="line"/>
      <point x="568" y="367" type="line"/>
      <point x="280" y="352" type="line"/>
      <point x="211" y="357"/>
      <point x="170" y="405"/>
      <point x="170" y="476" type="curve" smooth="yes"/>
      <point x="170" y="559"/>
      <point x="225" y="606"/>
      <point x="317" y="606" type="curve" smooth="yes"/>
      <point x="368" y="606"/>
      <point x="410" y="592"/>
      <point x="455" y="563" type="curve"/>
      <point x="465" y="565" type="line"/>
      <point x="479" y="606" type="line"/>
      <point x="428" y="633"/>
      <point x="382" y="646"/>
      <point x="325" y="646" type="curve" smooth="yes"/>
    </contour>
    <contour>
      <point x="435" y="295"/>
      <point x="452" y="251"/>
      <point x="452" y="201" type="curve" smooth="yes"/>
      <point x="452" y="100"/>
      <point x="384" y="31"/>
      <point x="266" y="31" type="curve" smooth="yes"/>
      <point x="167" y="31"/>
      <point x="108" y="79"/>
      <point x="108" y="153" type="curve" smooth="yes"/>
      <point x="108" y="223"/>
      <point x="161" y="277"/>
      <point x="248" y="313" type="curve"/>
      <point x="405" y="320" type="line"/>
    </contour>
  </outline>
</glyph>
<glyph name="asterisk" format="1">
  <advance width="370"/>
  <unicode hex="002A"/>
  <outline>
    <contour>
      <point x="116" y="456" type="line"/>
      <point x="117" y="452" type="line"/>
      <point x="128" y="445"/>
      <point x="140" y="437"/>
      <point x="152" y="433" type="curve"/>
      <point x="215" y="522" type="line"/>
      <point x="216" y="530" type="line"/>
      <point x="196" y="540" type="line"/>
    </contour>
    <contour>
      <point x="90" y="639" type="line"/>
      <point x="85" y="628"/>
      <point x="84" y="612"/>
      <point x="84" y="600" type="curve"/>
      <point x="185" y="563" type="line"/>
      <point x="192" y="566" type="line"/>
      <point x="196" y="589" type="line"/>
      <point x="95" y="641" type="line"/>
    </contour>
    <contour>
      <point x="240" y="526" type="line"/>
      <point x="292" y="422" type="line"/>
      <point x="297" y="421" type="line"/>
      <point x="307" y="428"/>
      <point x="317" y="437"/>
      <point x="325" y="449" type="curve"/>
      <point x="264" y="540" type="line"/>
      <point x="257" y="541" type="line"/>
    </contour>
    <contour>
      <point x="242" y="724"/>
      <point x="228" y="722"/>
      <point x="215" y="718" type="curve"/>
      <point x="213" y="606" type="line"/>
      <point x="217" y="601" type="line"/>
      <point x="240" y="603" type="line"/>
      <point x="257" y="719" type="line"/>
      <point x="254" y="724" type="line"/>
    </contour>
    <contour>
      <point x="261" y="592" type="line"/>
      <point x="258" y="586" type="line"/>
      <point x="267" y="564" type="line"/>
      <point x="379" y="585" type="line"/>
      <point x="381" y="588" type="line"/>
      <point x="377" y="601"/>
      <point x="371" y="613"/>
      <point x="363" y="624" type="curve"/>
    </contour>
  </outline>
</glyph>
<glyph name="comma" format="1">
  <advance width="230"/>
  <unicode hex="002C"/>
  <outline>
    <contour>
      <point x="78" y="59"/>
      <point x="67" y="52"/>
      <point x="58" y="45" type="curve"/>
      <point x="58" y="39" type="line"/>
      <point x="77" y="28"/>
      <point x="88" y="14"/>
      <point x="88" y="-2" type="curve"/>
      <point x="88" y="-28"/>
      <point x="69" y="-57"/>
      <point x="34" y="-84" type="curve"/>
      <point x="33" y="-89" type="line"/>
      <point x="51" y="-106" type="line"/>
      <point x="104" y="-67"/>
      <point x="130" y="-29"/>
      <point x="130" y="6" type="curve"/>
      <point x="130" y="29"/>
      <point x="116" y="49"/>
      <point x="91" y="63" type="curve"/>
    </contour>
  </outline>
</glyph>
<glyph name="hyphen" format="1">
  <advance width="310"/>
  <unicode hex="002D"/>
  <outline>
    <contour>
      <point x="34" y="257" type="line"/>
      <point x="30" y="224" type="line"/>
      <point x="35" y="219" type="line"/>
      <point x="283" y="252" type="line"/>
      <point x="286" y="285" type="line"/>
      <point x="281" y="290" type="line"/>
    </contour>
  </outline>
</glyph>
<glyph name="two" format="1">
  <advance width="447"/>
  <unicode hex="0032"/>
  <outline>
    <contour>
      <point x="190" y="497"/>
      <point x="132" y="466"/>
      <point x="83" y="419" type="curve"/>
      <point x="86" y="381" type="line"/>
      <point x="93" y="381" type="line"/>
      <point x="137" y="427"/>
      <point x="190" y="454"/>
      <point x="240" y="454" type="curve" smooth="yes"/>
      <point x="292" y="454"/>
      <point x="319" y="425"/>
      <point x="319" y="389" type="curve" smooth="yes"/>
      <point x="319" y="340"/>
      <point x="269" y="286"/>
      <point x="186" y="198" type="curve" smooth="yes"/>
      <point x="27" y="33" type="line"/>
      <point x="23" y="1" type="line"/>
      <point x="26" y="-1" type="line"/>
      <point x="64" y="0" type="line"/>
      <point x="287" y="0" type="line"/>
      <point x="378" y="-2" type="line"/>
      <point x="390" y="38" type="line"/>
      <point x="387" y="43" type="line"/>
      <point x="305" y="40" type="line"/>
      <point x="96" y="40" type="line"/>
      <point x="94" y="43" type="line"/>
      <point x="218" y="175" type="line" smooth="yes"/>
      <point x="319" y="282"/>
      <point x="367" y="341"/>
      <point x="367" y="400" type="curve" smooth="yes"/>
      <point x="367" y="457"/>
      <point x="320" y="497"/>
      <point x="251" y="497" type="curve" smooth="yes"/>
    </contour>
  </outline>
</glyph>
<glyph name="G" format="1">
  <advance width="575"/>
  <unicode hex="0047"/>
  <outline>
    <contour>
      <point x="171" y="644"/>
      <point x="50" y="499"/>
      <point x="50" y="249" type="curve" smooth="yes"/>
      <point x="50" y="88"/>
      <point x="128" y="-5"/>
      <point x="278" y="-5" type="curve" smooth="yes"/>
      <point x="347" y="-5"/>
      <point x="396" y="5"/>
      <point x="476" y="30" type="curve"/>
      <point x="492" y="164" type="line"/>
      <point x="502" y="247" type="line"/>
      <point x="457" y="243" type="line"/>
      <point x="447" y="159" type="line"/>
      <point x="433" y="64" type="line"/>
      <point x="364" y="43"/>
      <point x="328" y="37"/>
      <point x="280" y="37" type="curve" smooth="yes"/>
      <point x="160" y="37"/>
      <point x="99" y="111"/>
      <point x="99" y="253" type="curve" smooth="yes"/>
      <point x="99" y="476"/>
      <point x="197" y="601"/>
      <point x="372" y="601" type="curve" smooth="yes"/>
      <point x="426" y="601"/>
      <point x="474" y="584"/>
      <point x="527" y="548" type="curve"/>
      <point x="535" y="548" type="line"/>
      <point x="552" y="593" type="line"/>
      <point x="497" y="627"/>
      <point x="438" y="644"/>
      <point x="380" y="644" type="curve" smooth="yes"/>
    </contour>
    <contour>
      <point x="315" y="0" type="move" name="bottom"/>
    </contour>
    <contour>
      <point x="347" y="639" type="move" name="top"/>
    </contour>
  </outline>
</glyph>
<glyph name="M" format="1">
  <advance width="748"/>
  <unicode hex="004D"/>
  <outline>
    <contour>
      <point x="617" y="639" type="line"/>
      <point x="573" y="549" type="line"/>
      <point x="364" y="142" type="line"/>
      <point x="359" y="142" type="line"/>
      <point x="261" y="541" type="line"/>
      <point x="239" y="639" type="line"/>
      <point x="184" y="639" type="line"/>
      <point x="39" y="0" type="line"/>
      <point x="82" y="0" type="line"/>
      <point x="125" y="198" type="line"/>
      <point x="205" y="554" type="line"/>
      <point x="211" y="554" type="line"/>
      <point x="330" y="78" type="line"/>
      <point x="374" y="78" type="line"/>
      <point x="619" y="554" type="line"/>
      <point x="625" y="554" type="line"/>
      <point x="617" y="195" type="line"/>
      <point x="608" y="0" type="line"/>
      <point x="653" y="0" type="line"/>
      <point x="672" y="639" type="line"/>
    </contour>
  </outline>
</glyph>
<glyph name="P" format="1">
  <advance width="481"/>
  <unicode hex="0050"/>
  <outline>
    <contour>
      <point x="153" y="639" type="line"/>
      <point x="171" y="597" type="line"/>
      <point x="301" y="599" type="line"/>
      <point x="383" y="595"/>
      <point x="420" y="552"/>
      <point x="420" y="475" type="curve" smooth="yes"/>
      <point x="420" y="367"/>
      <point x="360" y="290"/>
      <point x="264" y="279" type="curve"/>
      <point x="127" y="280" type="line"/>
      <point x="121" y="238" type="line"/>
      <point x="226" y="238" type="line"/>
      <point x="380" y="238"/>
      <point x="469" y="336"/>
      <point x="469" y="483" type="curve" smooth="yes"/>
      <point x="469" y="586"/>
      <point x="408" y="640"/>
      <point x="308" y="640" type="curve"/>
    </contour>
    <contour>
      <point x="151" y="639" type="line"/>
      <point x="98" y="194" type="line"/>
      <point x="71" y="0" type="line"/>
      <point x="119" y="0" type="line"/>
      <point x="143" y="197" type="line"/>
      <point x="200" y="639" type="line"/>
    </contour>
  </outline>
</glyph>
<glyph name="R" format="1">
  <advance width="512"/>
  <unicode hex="0052"/>
  <outline>
    <contour>
      <point x="153" y="639" type="line"/>
      <point x="171" y="597" type="line"/>
      <point x="301" y="599" type="line"/>
      <point x="379" y="595"/>
      <point x="421" y="555"/>
      <point x="421" y="481" type="curve" smooth="yes"/>
      <point x="421" y="384"/>
      <point x="370" y="318"/>
      <point x="280" y="292" type="curve"/>
      <point x="129" y="294" type="line"/>
      <point x="123" y="251" type="line"/>
      <point x="278" y="251" type="line"/>
      <point x="398" y="282"/>
      <point x="470" y="370"/>
      <point x="470" y="488" type="curve" smooth="yes"/>
      <point x="470" y="586"/>
      <point x="411" y="640"/>
      <point x="309" y="640" type="curve"/>
    </contour>
    <contour>
      <point x="151" y="639" type="line"/>
      <point x="98" y="194" type="line"/>
      <point x="71" y="0" type="line"/>
      <point x="119" y="0" type="line"/>
      <point x="142" y="197" type="line"/>
      <point x="200" y="639" type="line"/>
    </contour>
    <contour>
      <point x="256" y="279" type="line"/>
      <point x="295" y="183"/>
      <point x="342" y="88"/>
      <point x="393" y="-4" type="curve"/>
      <point x="400" y="-8" type="line"/>
      <point x="416" y="-5"/>
      <point x="428" y="-2"/>
      <point x="442" y="5" type="curve"/>
      <point x="444" y="11" type="line"/>
      <point x="391" y="99"/>
      <point x="344" y="188"/>
      <point x="303" y="279" type="curve"/>
    </contour>
    <contour>
      <point x="228" y="0" type="move" name="bottom"/>
    </contour>
    <contour>
      <point x="306" y="639" type="move" name="top"/>
    </contour>
  </outline>
</glyph>
<glyph name="U" format="1">
  <advance width="590"/>
  <unicode hex="0055"/>
  <outline>
    <contour>
      <point x="516" y="639" type="line"/>
      <point x="468" y="232" type="line" smooth="yes"/>
      <point x="452" y="105"/>
      <point x="383" y="38"/>
      <point x="271" y="38" type="curve" smooth="yes"/>
      <point x="174" y="38"/>
      <point x="122" y="90"/>
      <point x="122" y="189" type="curve" smooth="yes"/>
      <point x="122" y="205"/>
      <point x="123" y="220"/>
      <point x="125" y="236" type="curve" smooth="yes"/>
      <point x="178" y="639" type="line"/>
      <point x="131" y="639" type="line"/>
      <point x="92" y="322" type="line"/>
      <point x="79" y="232" type="line" smooth="yes"/>
      <point x="76" y="213"/>
      <point x="75" y="195"/>
      <point x="75" y="178" type="curve" smooth="yes"/>
      <point x="75" y="60"/>
      <point x="147" y="-5"/>
      <point x="269" y="-5" type="curve" smooth="yes"/>
      <point x="411" y="-5"/>
      <point x="497" y="83"/>
      <point x="513" y="235" type="curve"/>
      <point x="522" y="313" type="line"/>
      <point x="564" y="639" type="line"/>
    </contour>
    <contour>
      <point x="503" y="10" type="move" name="ogonek"/>
    </contour>
    <contour>
      <point x="346" y="639" type="move" name="top"/>
    </contour>
  </outline>
</glyph>
<glyph name="V" format="1">
  <advance width="521"/>
  <unicode hex="0056"/>
  <outline>
    <contour>
      <point x="515" y="639" type="line"/>
      <point x="494" y="584" type="line"/>
      <point x="237" y="56" type="line"/>
      <point x="233" y="56" type="line"/>
      <point x="125" y="585" type="line"/>
      <point x="118" y="639" type="line"/>
      <point x="68" y="639" type="line"/>
      <point x="200" y="0" type="line"/>
      <point x="255" y="0" type="line"/>
      <point x="564" y="639" type="line" smooth="yes"/>
    </contour>
  </outline>
</glyph>
<glyph name="bracketleft" format="1">
  <advance width="285"/>
  <unicode hex="005B"/>
  <outline>
    <contour>
      <point x="152" y="636" type="line"/>
      <point x="107" y="258" type="line"/>
      <point x="59" y="-121" type="line"/>
      <point x="219" y="-131" type="line"/>
      <point x="224" y="-127" type="line"/>
      <point x="227" y="-101" type="line"/>
      <point x="104" y="-91" type="line"/>
      <point x="189" y="606" type="line"/>
      <point x="315" y="616" type="line"/>
      <point x="318" y="642" type="line"/>
      <point x="315" y="646" type="line"/>
    </contour>
  </outline>
</glyph>
<glyph name="asciicircum" format="1">
  <advance width="415"/>
  <unicode hex="005E"/>
  <outline>
    <contour>
      <point x="225" y="489" type="line"/>
      <point x="219" y="485" type="line"/>
      <point x="10" y="125" type="line"/>
      <point x="37" y="113" type="line"/>
      <point x="44" y="116" type="line"/>
      <point x="238" y="448" type="line"/>
      <point x="242" y="448" type="line"/>
      <point x="345" y="113" type="line"/>
      <point x="375" y="121" type="line"/>
      <point x="379" y="127" type="line"/>
      <point x="268" y="489" type="line"/>
    </contour>
  </outline>
</glyph>
<glyph name="grave" format="1">
  <advance width="390"/>
  <unicode hex="0060"/>
  <outline>
    <contour>
      <point x="169" y="681" type="line"/>
      <point x="150" y="656" type="line"/>
      <point x="151" y="650" type="line"/>
      <point x="205" y="602"/>
      <point x="254" y="561"/>
      <point x="308" y="518" type="curve"/>
      <point x="315" y="519" type="line"/>
      <point x="331" y="541" type="line"/>
      <point x="280" y="583"/>
      <point x="231" y="627"/>
      <point x="176" y="682" type="curve"/>
    </contour>
    <contour>
      <point x="232" y="455" type="move" name="_top"/>
    </contour>
  </outline>
</glyph>
<glyph name="c" format="1">
  <advance width="329"/>
  <unicode hex="0063"/>
  <outline>
    <contour>
      <point x="110" y="460"/>
      <point x="41" y="323"/>
      <point x="41" y="150" type="curve" smooth="yes"/>
      <point x="41" y="32"/>
      <point x="79" y="4"/>
      <point x="139" y="-6" type="curve"/>
      <point x="150" y="-6" type="line"/>
      <point x="205" y="6"/>
      <point x="248" y="34"/>
      <point x="291" y="109" type="curve"/>
      <point x="274" y="133" type="line"/>
      <point x="265" y="133" type="line"/>
      <point x="226" y="56"/>
      <point x="185" y="37"/>
      <point x="152" y="37" type="curve" smooth="yes"/>
      <point x="109" y="37"/>
      <point x="86" y="69"/>
      <point x="86" y="156" type="curve" smooth="yes"/>
      <point x="86" y="319"/>
      <point x="145" y="420"/>
      <point x="241" y="421" type="curve"/>
      <point x="260" y="421"/>
      <point x="282" y="413"/>
      <point x="307" y="392" type="curve"/>
      <point x="317" y="395" type="line"/>
      <point x="331" y="431" type="line"/>
      <point x="325" y="440" type="line"/>
      <point x="265" y="460" type="line"/>
    </contour>
    <contour>
      <point x="165" y="0" type="move" name="bottom"/>
    </contour>
    <contour>
      <point x="226" y="455" type="move" name="top"/>
    </contour>
  </outline>
</glyph>
<glyph name="d" format="1">
  <advance width="432"/>
  <unicode hex="0064"/>
  <outline>
    <contour>
      <point x="273" y="460" type="line"/>
      <point x="120" y="443"/>
      <point x="39" y="296"/>
      <point x="39" y="142" type="curve" smooth="yes"/>
      <point x="39" y="64"/>
      <point x="61" y="21"/>
      <point x="102" y="-6" type="curve"/>
      <point x="116" y="-6" type="line"/>
      <point x="181" y="54"/>
      <point x="244" y="139"/>
      <point x="298" y="235" type="curve"/>
      <point x="310" y="235" type="line"/>
      <point x="327" y="357" type="line"/>
      <point x="236" y="158"/>
      <point x="135" y="50"/>
      <point x="118" y="50" type="curve" smooth="yes"/>
      <point x="106" y="50"/>
      <point x="83" y="73"/>
      <point x="83" y="154" type="curve" smooth="yes"/>
      <point x="83" y="294"/>
      <point x="151" y="419"/>
      <point x="266" y="419" type="curve"/>
      <point x="345" y="401" type="line"/>
      <point x="361" y="441" type="line"/>
      <point x="277" y="460" type="line"/>
    </contour>
    <contour>
      <point x="360" y="698" type="line"/>
      <point x="356" y="604" type="line"/>
      <point x="272" y="-4" type="line"/>
      <point x="323" y="1" type="line"/>
      <point x="330" y="108" type="line"/>
      <point x="411" y="703" type="line"/>
    </contour>
    <contour>
      <point x="327" y="0" type="move" name="bottom"/>
    </contour>
    <contour>
      <point x="276" y="228" type="move" name="center"/>
    </contour>
    <contour>
      <point x="328" y="455" type="move" name="top"/>
    </contour>
    <contour>
      <point x="432" y="455" type="move" name="topright"/>
    </contour>
  </outline>
</glyph>
<glyph name="e" format="1">
  <advance width="364"/>
  <unicode hex="0065"/>
  <outline>
    <contour>
      <point x="77" y="172" type="line"/>
      <point x="254" y="233"/>
      <point x="337" y="305"/>
      <point x="337" y="382" type="curve" smooth="yes"/>
      <point x="337" y="428"/>
      <point x="310" y="455"/>
      <point x="257" y="461" type="curve"/>
      <point x="250" y="462" type="line"/>
      <point x="129" y="457"/>
      <point x="41" y="327"/>
      <point x="41" y="149" type="curve"/>
      <point x="41" y="54"/>
      <point x="72" y="2"/>
      <point x="148" y="-6" type="curve"/>
      <point x="159" y="-6" type="line"/>
      <point x="220" y="5"/>
      <point x="268" y="44"/>
      <point x="310" y="110" type="curve"/>
      <point x="293" y="134" type="line"/>
      <point x="283" y="134" type="line"/>
      <point x="251" y="75"/>
      <point x="205" y="37"/>
      <point x="158" y="37" type="curve" smooth="yes"/>
      <point x="110" y="37"/>
      <point x="87" y="74"/>
      <point x="87" y="162" type="curve" smooth="yes"/>
      <point x="87" y="314"/>
      <point x="154" y="424"/>
      <point x="241" y="424" type="curve" smooth="yes"/>
      <point x="277" y="424"/>
      <point x="293" y="405"/>
      <point x="293" y="378" type="curve" smooth="yes"/>
      <point x="293" y="317"/>
      <point x="217" y="256"/>
      <point x="77" y="210" type="curve"/>
    </contour>
    <contour>
      <point x="162" y="0" type="move" name="bottom"/>
    </contour>
    <contour>
      <point x="295" y="10" type="move" name="ogonek"/>
    </contour>
    <contour>
      <point x="234" y="455" type="move" name="top"/>
    </contour>
  </outline>
</glyph>
<glyph name="h" format="1">
  <advance width="458"/>
  <unicode hex="0068"/>
  <outline>
    <contour>
      <point x="326" y="463" type="line"/>
      <point x="263" y="417"/>
      <point x="204" y="335"/>
      <point x="133" y="211" type="curve"/>
      <point x="119" y="211" type="line"/>
      <point x="103" y="91" type="line"/>
      <point x="206" y="298"/>
      <point x="293" y="409"/>
      <point x="329" y="409" type="curve" smooth="yes"/>
      <point x="344" y="409"/>
      <point x="356" y="389"/>
      <point x="356" y="363" type="curve"/>
      <point x="355" y="349" type="line"/>
      <point x="298" y="-4" type="line"/>
      <point x="350" y="1" type="line"/>
      <point x="359" y="104" type="line"/>
      <point x="401" y="364" type="line"/>
      <point x="402" y="377" type="line"/>
      <point x="403" y="422"/>
      <point x="375" y="454"/>
      <point x="337" y="463" type="curve"/>
    </contour>
    <contour>
      <point x="141" y="698" type="line"/>
      <point x="137" y="604" type="line"/>
      <point x="53" y="-4" type="line"/>
      <point x="105" y="1" type="line"/>
      <point x="112" y="108" type="line"/>
      <point x="193" y="703" type="line"/>
    </contour>
    <contour>
      <point x="261" y="228" type="move" name="center"/>
    </contour>
    <contour>
      <point x="165" y="700" type="move" name="top"/>
    </contour>
  </outline>
</glyph>
<glyph name="n" format="1">
  <advance width="456"/>
  <unicode hex="006E"/>
  <outline>
    <contour>
      <point x="324" y="463" type="line"/>
      <point x="260" y="417"/>
      <point x="202" y="335"/>
      <point x="131" y="211" type="curve"/>
      <point x="117" y="211" type="line"/>
      <point x="101" y="91" type="line"/>
      <point x="204" y="298"/>
      <point x="291" y="409"/>
      <point x="327" y="409" type="curve" smooth="yes"/>
      <point x="342" y="409"/>
      <point x="354" y="389"/>
      <point x="354" y="363" type="curve"/>
      <point x="353" y="349" type="line"/>
      <point x="296" y="-4" type="line"/>
      <point x="348" y="1" type="line"/>
      <point x="357" y="104" type="line"/>
      <point x="399" y="364" type="line"/>
      <point x="400" y="377" type="line"/>
      <point x="401" y="422"/>
      <point x="373" y="454"/>
      <point x="335" y="463" type="curve"/>
    </contour>
    <contour>
      <point x="168" y="66" type="move"/>
    </contour>
    <contour>
      <point x="108" y="454" type="line"/>
      <point x="102" y="360" type="line"/>
      <point x="52" y="-4" type="line"/>
      <point x="103" y="1" type="line"/>
      <point x="110" y="108" type="line"/>
      <point x="158" y="459" type="line"/>
    </contour>
    <contour>
      <point x="204" y="0" type="move" name="bottom"/>
    </contour>
    <contour>
      <point x="260" y="455" type="move" name="top"/>
    </contour>
  </outline>
</glyph>
<glyph name="o" format="1">
  <advance width="404"/>
  <unicode hex="006F"/>
  <outline>
    <contour>
      <point x="122" y="457"/>
      <point x="42" y="323"/>
      <point x="42" y="142" type="curve" smooth="yes"/>
      <point x="42" y="46"/>
      <point x="76" y="2"/>
      <point x="146" y="-7" type="curve"/>
      <point x="153" y="-7" type="line"/>
      <point x="284" y="2"/>
      <point x="362" y="134"/>
      <point x="362" y="317" type="curve" smooth="yes"/>
      <point x="362" y="409"/>
      <point x="329" y="453"/>
      <point x="260" y="462" type="curve"/>
      <point x="253" y="462" type="line"/>
    </contour>
    <contour>
      <point x="295" y="421"/>
      <point x="316" y="388"/>
      <point x="316" y="313" type="curve" smooth="yes"/>
      <point x="316" y="151"/>
      <point x="256" y="33"/>
      <point x="158" y="33" type="curve" smooth="yes"/>
      <point x="108" y="33"/>
      <point x="87" y="68"/>
      <point x="87" y="143" type="curve" smooth="yes"/>
      <point x="87" y="305"/>
      <point x="147" y="421"/>
      <point x="246" y="421" type="curve" smooth="yes"/>
    </contour>
    <contour>
      <point x="237" y="455" type="move" name="top"/>
    </contour>
  </outline>
</glyph>
<glyph name="p" format="1">
  <advance width="430"/>
  <unicode hex="0070"/>
  <outline>
    <contour>
      <point x="315" y="460" type="line"/>
      <point x="250" y="400"/>
      <point x="187" y="315"/>
      <point x="134" y="219" type="curve"/>
      <point x="122" y="219" type="line"/>
      <point x="105" y="96" type="line"/>
      <point x="195" y="295"/>
      <point x="295" y="404"/>
      <point x="313" y="404" type="curve" smooth="yes"/>
      <point x="325" y="404"/>
      <point x="347" y="381"/>
      <point x="347" y="300" type="curve" smooth="yes"/>
      <point x="347" y="160"/>
      <point x="280" y="35"/>
      <point x="165" y="35" type="curve"/>
      <point x="88" y="55" type="line"/>
      <point x="69" y="15" type="line"/>
      <point x="154" y="-6" type="line"/>
      <point x="158" y="-6" type="line"/>
      <point x="311" y="11"/>
      <point x="391" y="158"/>
      <point x="391" y="312" type="curve" smooth="yes"/>
      <point x="391" y="390"/>
      <point x="369" y="431"/>
      <point x="327" y="460" type="curve"/>
    </contour>
    <contour>
      <point x="109" y="454" type="line"/>
      <point x="103" y="360" type="line"/>
      <point x="29" y="-190" type="line"/>
      <point x="80" y="-185" type="line"/>
      <point x="87" y="-77" type="line"/>
      <point x="158" y="459" type="line"/>
    </contour>
    <contour>
      <point x="274" y="0" type="move" name="bottom"/>
    </contour>
    <contour>
      <point x="198" y="399" type="move" name="top"/>
    </contour>
  </outline>
</glyph>
<glyph name="r" format="1">
  <advance width="318"/>
  <unicode hex="0072"/>
  <outline>
    <contour>
      <point x="253" y="425"/>
      <point x="191" y="342"/>
      <point x="131" y="213" type="curve"/>
      <point x="116" y="213" type="line"/>
      <point x="102" y="76" type="line"/>
      <point x="188" y="294"/>
      <point x="256" y="384"/>
      <point x="314" y="393" type="curve"/>
      <point x="324" y="392" type="line"/>
      <point x="329" y="394" type="line"/>
      <point x="338" y="455" type="line"/>
      <point x="317" y="457" type="line"/>
    </contour>
    <contour>
      <point x="109" y="454" type="line"/>
      <point x="103" y="360" type="line"/>
      <point x="53" y="-4" type="line"/>
      <point x="104" y="1" type="line"/>
      <point x="111" y="108" type="line"/>
      <point x="158" y="459" type="line"/>
    </contour>
    <contour>
      <point x="81" y="0" type="move" name="bottom"/>
    </contour>
    <contour>
      <point x="223" y="455" type="move" name="top"/>
    </contour>
  </outline>
</glyph>
<glyph name="t" format="1">
  <advance width="320"/>
  <unicode hex="0074"/>
  <outline>
    <contour>
      <point x="153" y="569" type="line"/>
      <point x="126" y="361" type="line"/>
      <point x="81" y="91" type="line"/>
      <point x="79" y="72" type="line"/>
      <point x="79" y="28"/>
      <point x="105" y="1"/>
      <point x="145" y="-7" type="curve"/>
      <point x="155" y="-7" type="line"/>
      <point x="199" y="11"/>
      <point x="236" y="46"/>
      <point x="279" y="110" type="curve"/>
      <point x="264" y="132" type="line"/>
      <point x="254" y="133" type="line"/>
      <point x="217" y="72"/>
      <point x="182" y="43"/>
      <point x="158" y="43" type="curve" smooth="yes"/>
      <point x="137" y="43"/>
      <point x="124" y="57"/>
      <point x="124" y="84" type="curve"/>
      <point x="126" y="103" type="line"/>
      <point x="206" y="586" type="line"/>
      <point x="200" y="590" type="line"/>
    </contour>
    <contour>
      <point x="65" y="449" type="line"/>
      <point x="61" y="419" type="line"/>
      <point x="66" y="414" type="line"/>
      <point x="317" y="414" type="line"/>
      <point x="322" y="444" type="line"/>
      <point x="317" y="449" type="line"/>
    </contour>
    <contour>
      <point x="166" y="0" type="move" name="bottom"/>
    </contour>
    <contour>
      <point x="160" y="228" type="move" name="center"/>
    </contour>
  </outline>
</glyph>
<glyph name="w" format="1">
  <advance width="670"/>
  <unicode hex="0077"/>
  <outline>
    <contour>
      <point x="642" y="302"/>
      <point x="658" y="342"/>
      <point x="658" y="378" type="curve" smooth="yes"/>
      <point x="658" y="406"/>
      <point x="649" y="433"/>
      <point x="632" y="459" type="curve"/>
      <point x="588" y="448" type="line"/>
      <point x="586" y="441" type="line"/>
      <point x="602" y="418"/>
      <point x="612" y="396"/>
      <point x="612" y="372" type="curve" smooth="yes"/>
      <point x="612" y="343"/>
      <point x="598" y="310"/>
      <point x="577" y="272" type="curve" smooth="yes"/>
      <point x="457" y="58" type="line"/>
      <point x="452" y="58" type="line"/>
      <point x="414" y="406" type="line"/>
      <point x="410" y="455" type="line"/>
      <point x="358" y="455" type="line"/>
      <point x="336" y="403" type="line"/>
      <point x="176" y="58" type="line"/>
      <point x="170" y="58" type="line"/>
      <point x="132" y="406" type="line"/>
      <point x="129" y="459" type="line"/>
      <point x="81" y="453" type="line"/>
      <point x="135" y="0" type="line"/>
      <point x="189" y="0" type="line"/>
      <point x="370" y="387" type="line"/>
      <point x="376" y="387" type="line"/>
      <point x="419" y="0" type="line"/>
      <point x="469" y="0" type="line"/>
      <point x="616" y="256" type="line" smooth="yes"/>
    </contour>
    <contour>
      <point x="364" y="455" type="move" name="top"/>
    </contour>
  </outline>
</glyph>
<glyph name="y" format="1">
  <advance width="393"/>
  <unicode hex="0079"/>
  <outline>
    <contour>
      <point x="311" y="448" type="line"/>
      <point x="309" y="441" type="line"/>
      <point x="325" y="418"/>
      <point x="335" y="396"/>
      <point x="335" y="372" type="curve" smooth="yes"/>
      <point x="335" y="341"/>
      <point x="323" y="307"/>
      <point x="299" y="264" type="curve" smooth="yes"/>
      <point x="167" y="29" type="line" smooth="yes"/>
      <point x="94" y="-95"/>
      <point x="27" y="-148"/>
      <point x="-37" y="-148" type="curve" smooth="yes"/>
      <point x="-57" y="-148"/>
      <point x="-80" y="-143"/>
      <point x="-106" y="-133" type="curve"/>
      <point x="-113" y="-137" type="line"/>
      <point x="-111" y="-179" type="line"/>
      <point x="-86" y="-189"/>
      <point x="-61" y="-194"/>
      <point x="-37" y="-194" type="curve" smooth="yes"/>
      <point x="43" y="-194"/>
      <point x="116" y="-135"/>
      <point x="208" y="24" type="curve" smooth="yes"/>
      <point x="337" y="246" type="line" smooth="yes"/>
      <point x="366" y="296"/>
      <point x="381" y="339"/>
      <point x="381" y="378" type="curve" smooth="yes"/>
      <point x="381" y="406"/>
      <point x="373" y="433"/>
      <point x="355" y="459" type="curve"/>
    </contour>
    <contour>
      <point x="65" y="453" type="line"/>
      <point x="154" y="-17" type="line"/>
      <point x="207" y="66" type="line"/>
      <point x="178" y="66" type="line"/>
      <point x="125" y="382" type="line"/>
      <point x="114" y="459" type="line"/>
    </contour>
    <contour>
      <point x="212" y="455" type="move" name="top"/>
    </contour>
  </outline>
</glyph>
<glyph name="z" format="1">
  <advance width="400"/>
  <unicode hex="007A"/>
  <outline>
    <contour>
      <point x="333" y="455" type="line"/>
      <point x="136" y="456" type="line"/>
      <point x="80" y="460" type="line"/>
      <point x="76" y="456" type="line"/>
      <point x="66" y="414" type="line"/>
      <point x="70" y="409" type="line"/>
      <point x="126" y="413" type="line"/>
      <point x="295" y="414" type="line"/>
      <point x="-9" y="9" type="line"/>
      <point x="7" y="-5" type="line"/>
      <point x="13" y="-5" type="line"/>
      <point x="33" y="16"/>
      <point x="52" y="23"/>
      <point x="74" y="23" type="curve" smooth="yes"/>
      <point x="120" y="23"/>
      <point x="170" y="-10"/>
      <point x="220" y="-10" type="curve" smooth="yes"/>
      <point x="301" y="-10"/>
      <point x="349" y="48"/>
      <point x="355" y="166" type="curve"/>
      <point x="332" y="181" type="line"/>
      <point x="321" y="178" type="line"/>
      <point x="316" y="78"/>
      <point x="285" y="35"/>
      <point x="221" y="35" type="curve" smooth="yes"/>
      <point x="184" y="35"/>
      <point x="140" y="64"/>
      <point x="102" y="64" type="curve"/>
      <point x="73" y="58" type="line"/>
      <point x="371" y="453" type="line"/>
      <point x="354" y="469" type="line"/>
    </contour>
    <contour>
      <point x="229" y="455" type="move" name="top"/>
    </contour>
  </outline>
</glyph>
<glyph name="copyright" format="1">
  <advance width="689"/>
  <unicode hex="00A9"/>
  <outline>
    <contour>
      <point x="176" y="598"/>
      <point x="59" y="476"/>
      <point x="59" y="293" type="curve" smooth="yes"/>
      <point x="59" y="110"/>
      <point x="176" y="-12"/>
      <point x="352" y="-12" type="curve" smooth="yes"/>
      <point x="528" y="-12"/>
      <point x="646" y="110"/>
      <point x="646" y="293" type="curve" smooth="yes"/>
      <point x="646" y="476"/>
      <point x="528" y="598"/>
      <point x="352" y="598" type="curve" smooth="yes"/>
    </contour>
    <contour>
      <point x="263" y="465"/>
      <point x="208" y="404"/>
      <point x="208" y="295" type="curve" smooth="yes"/>
      <point x="208" y="186"/>
      <point x="259" y="125"/>
      <point x="358" y="125" type="curve" smooth="yes"/>
      <point x="389" y="125"/>
      <point x="424" y="136"/>
      <point x="454" y="153" type="curve"/>
      <point x="457" y="185" type="line"/>
      <point x="452" y="186" type="line"/>
      <point x="425" y="168"/>
      <point x="390" y="158"/>
      <point x="360" y="158" type="curve" smooth="yes"/>
      <point x="286" y="158"/>
      <point x="246" y="207"/>
      <point x="246" y="297" type="curve" smooth="yes"/>
      <point x="246" y="386"/>
      <point x="286" y="432"/>
      <point x="363" y="432" type="curve" smooth="yes"/>
      <point x="392" y="432"/>
      <point x="423" y="424"/>
      <point x="446" y="407" type="curve"/>
      <point x="451" y="408" type="line"/>
      <point x="459" y="439" type="line"/>
      <point x="431" y="455"/>
      <point x="398" y="465"/>
      <point x="364" y="465" type="curve" smooth="yes"/>
    </contour>
    <contour>
      <point x="512" y="572"/>
      <point x="619" y="460"/>
      <point x="619" y="293" type="curve" smooth="yes"/>
      <point x="619" y="126"/>
      <point x="512" y="14"/>
      <point x="352" y="14" type="curve" smooth="yes"/>
      <point x="191" y="14"/>
      <point x="85" y="126"/>
      <point x="85" y="293" type="curve" smooth="yes"/>
      <point x="85" y="460"/>
      <point x="191" y="572"/>
      <point x="352" y="572" type="curve" smooth="yes"/>
    </contour>
  </outline>
</glyph>
<glyph name="macron" format="1">
  <advance width="390"/>
  <unicode hex="00AF"/>
  <outline>
    <contour>
      <point x="98" y="620" type="line"/>
      <point x="95" y="589" type="line"/>
      <point x="99" y="584" type="line"/>
      <point x="385" y="584" type="line"/>
      <point x="388" y="616" type="line"/>
      <point x="384" y="620" type="line"/>
    </contour>
    <contour>
      <point x="222" y="455" type="move" name="_top"/>
    </contour>
  </outline>
</glyph>
<glyph name="acute" format="1">
  <advance width="390"/>
  <unicode hex="00B4"/>
  <outline>
    <contour>
      <point x="249" y="627"/>
      <point x="200" y="583"/>
      <point x="150" y="541" type="curve"/>
      <point x="166" y="519" type="line"/>
      <point x="173" y="518" type="line"/>
      <point x="226" y="561"/>
      <point x="276" y="602"/>
      <point x="329" y="650" type="curve"/>
      <point x="331" y="656" type="line"/>
      <point x="311" y="681" type="line"/>
      <point x="305" y="682" type="line"/>
    </contour>
    <contour>
      <point x="220" y="455" type="move" name="_top"/>
    </contour>
  </outline>
</glyph>
<glyph name="multiply" format="1">
  <advance width="481"/>
  <unicode hex="00D7"/>
  <outline>
    <contour>
      <point x="248" y="294" type="line"/>
      <point x="134" y="424" type="line"/>
      <point x="108" y="403" type="line"/>
      <point x="107" y="396" type="line"/>
      <point x="220" y="268" type="line"/>
      <point x="74" y="139" type="line"/>
      <point x="74" y="133" type="line"/>
      <point x="96" y="112" type="line"/>
      <point x="242" y="241" type="line"/>
      <point x="356" y="112" type="line"/>
      <point x="383" y="133" type="line"/>
      <point x="384" y="139" type="line"/>
      <point x="272" y="268" type="line"/>
      <point x="416" y="396" type="line"/>
      <point x="417" y="403" type="line"/>
      <point x="394" y="424" type="line"/>
    </contour>
  </outline>
</glyph>
<glyph name="ae" format="1">
  <advance width="591"/>
  <unicode hex="00E6"/>
  <outline>
    <contour>
      <point x="282" y="461" type="line"/>
      <point x="278" y="461" type="line"/>
      <point x="126" y="444"/>
      <point x="46" y="297"/>
      <point x="46" y="144" type="curve" smooth="yes"/>
      <point x="46" y="64"/>
      <point x="68" y="22"/>
      <point x="110" y="-6" type="curve"/>
      <point x="123" y="-6" type="line"/>
      <point x="177" y="47"/>
      <point x="230" y="121"/>
      <point x="276" y="205" type="curve"/>
      <point x="274" y="189"/>
      <point x="273" y="169"/>
      <point x="273" y="152" type="curve" smooth="yes"/>
      <point x="273" y="56"/>
      <point x="301" y="3"/>
      <point x="381" y="-6" type="curve"/>
      <point x="392" y="-6" type="line"/>
      <point x="453" y="5"/>
      <point x="500" y="44"/>
      <point x="543" y="110" type="curve"/>
      <point x="526" y="134" type="line"/>
      <point x="516" y="134" type="line"/>
      <point x="485" y="75"/>
      <point x="438" y="37"/>
      <point x="390" y="37" type="curve" smooth="yes"/>
      <point x="344" y="37"/>
      <point x="320" y="72"/>
      <point x="319" y="154" type="curve" smooth="yes"/>
      <point x="319" y="157"/>
      <point x="319" y="166"/>
      <point x="319" y="175" type="curve"/>
      <point x="490" y="236"/>
      <point x="571" y="306"/>
      <point x="571" y="382" type="curve" smooth="yes"/>
      <point x="571" y="428"/>
      <point x="543" y="455"/>
      <point x="490" y="461" type="curve"/>
      <point x="483" y="462" type="line" smooth="yes"/>
      <point x="447" y="460"/>
      <point x="414" y="449"/>
      <point x="386" y="428" type="curve"/>
    </contour>
    <contour>
      <point x="351" y="394" type="line"/>
      <point x="335" y="377"/>
      <point x="321" y="356"/>
      <point x="309" y="331" type="curve"/>
      <point x="232" y="155"/>
      <point x="143" y="50"/>
      <point x="126" y="50" type="curve" smooth="yes"/>
      <point x="113" y="50"/>
      <point x="91" y="74"/>
      <point x="91" y="156" type="curve" smooth="yes"/>
      <point x="91" y="295"/>
      <point x="158" y="419"/>
      <point x="272" y="420" type="curve"/>
    </contour>
    <contour>
      <point x="509" y="424"/>
      <point x="526" y="405"/>
      <point x="526" y="378" type="curve" smooth="yes"/>
      <point x="526" y="319"/>
      <point x="454" y="260"/>
      <point x="321" y="214" type="curve"/>
      <point x="335" y="338"/>
      <point x="396" y="424"/>
      <point x="474" y="424" type="curve" smooth="yes"/>
    </contour>
    <contour>
      <point x="608" y="0" type="move" name="bottom"/>
    </contour>
    <contour>
      <point x="399" y="10" type="move" name="ogonek"/>
    </contour>
    <contour>
      <point x="351" y="455" type="move" name="top"/>
    </contour>
  </outline>
</glyph>
<glyph name="thorn" format="1">
  <advance width="438"/>
  <unicode hex="00FE"/>
  <outline>
    <contour>
      <point x="316" y="460" type="line"/>
      <point x="251" y="400"/>
      <point x="188" y="313"/>
      <point x="135" y="218" type="curve"/>
      <point x="123" y="218" type="line"/>
      <point x="106" y="96" type="line"/>
      <point x="196" y="295"/>
      <point x="296" y="404"/>
      <point x="314" y="404" type="curve" smooth="yes"/>
      <point x="326" y="404"/>
      <point x="348" y="381"/>
      <point x="348" y="300" type="curve" smooth="yes"/>
      <point x="348" y="160"/>
      <point x="281" y="35"/>
      <point x="166" y="35" type="curve"/>
      <point x="89" y="55" type="line"/>
      <point x="70" y="15" type="line"/>
      <point x="155" y="-6" type="line"/>
      <point x="159" y="-6" type="line"/>
      <point x="312" y="11"/>
      <point x="392" y="158"/>
      <point x="392" y="312" type="curve" smooth="yes"/>
      <point x="392" y="390"/>
      <point x="370" y="431"/>
      <point x="328" y="460" type="curve"/>
    </contour>
    <contour>
      <point x="143" y="698" type="line"/>
      <point x="138" y="603" type="line"/>
      <point x="30" y="-191" type="line"/>
      <point x="81" y="-186" type="line"/>
      <point x="88" y="-78" type="line"/>
      <point x="193" y="702" type="line"/>
    </contour>
  </outline>
</glyph>
<glyph name="Aogonek" format="1">
  <advance width="536"/>
  <unicode hex="0104"/>
  <outline>
    <contour>
      <point x="435" y="0" type="line"/>
      <point x="353" y="-86"/>
      <point x="344" y="-113"/>
      <point x="344" y="-140" type="curve" smooth="yes"/>
      <point x="344" y="-179"/>
      <point x="371" y="-196"/>
      <point x="401" y="-196" type="curve" smooth="yes"/>
      <point x="432" y="-196"/>
      <point x="459" y="-175"/>
      <point x="483" y="-142" type="curve"/>
      <point x="478" y="-112" type="line"/>
      <point x="475" y="-112" type="line"/>
      <point x="453" y="-142"/>
      <point x="432" y="-160"/>
      <point x="409" y="-160" type="curve" smooth="yes"/>
      <point x="395" y="-160"/>
      <point x="381" y="-153"/>
      <point x="381" y="-131" type="curve" smooth="yes"/>
      <point x="381" y="-104"/>
      <point x="401" y="-75"/>
      <point x="476" y="0" type="curve"/>
    </contour>
    <component base="A"/>
  </outline>
</glyph>
<glyph name="hbar" format="1">
  <advance width="522"/>
  <unicode hex="0127"/>
  <outline>
    <contour>
      <point x="95" y="592" type="line"/>
      <point x="92" y="563" type="line"/>
      <point x="96" y="559" type="line"/>
      <point x="345" y="559" type="line"/>
      <point x="348" y="587" type="line"/>
      <point x="343" y="592" type="line"/>
    </contour>
    <component base="h" xOffset="41"/>
  </outline>
</glyph>
<glyph name="Iogonek" format="1">
  <advance width="247"/>
  <unicode hex="012E"/>
  <outline>
    <contour>
      <point x="81" y="15" type="line"/>
      <point x="9" y="-73"/>
      <point x="-16" y="-107"/>
      <point x="-16" y="-141" type="curve" smooth="yes"/>
      <point x="-16" y="-173"/>
      <point x="5" y="-197"/>
      <point x="39" y="-197" type="curve" smooth="yes"/>
      <point x="67" y="-197"/>
      <point x="92" y="-180"/>
      <point x="114" y="-149" type="curve"/>
      <point x="102" y="-122" type="line"/>
      <point x="99" y="-122" type="line"/>
      <point x="83" y="-149"/>
      <point x="64" y="-161"/>
      <point x="46" y="-161" type="curve" smooth="yes"/>
      <point x="29" y="-161"/>
      <point x="19" y="-150"/>
      <point x="19" y="-134" type="curve" smooth="yes"/>
      <point x="19" y="-110"/>
      <point x="44" y="-75"/>
      <point x="111" y="6" type="curve"/>
    </contour>
    <component base="I"/>
  </outline>
</glyph>
<glyph name="dotlessi" format="1">
  <advance width="211"/>
  <unicode hex="0131"/>
  <outline>
    <contour>
      <point x="107" y="454" type="line"/>
      <point x="102" y="360" type="line"/>
      <point x="52" y="-4" type="line"/>
      <point x="104" y="1" type="line"/>
      <point x="110" y="108" type="line"/>
      <point x="157" y="459" type="line"/>
    </contour>
    <contour>
      <point x="163" y="10" type="move" name="ogonek"/>
    </contour>
    <contour>
      <point x="132" y="455" type="move" name="top"/>
    </contour>
  </outline>
</glyph>
<glyph name="kgreenlandic" format="1">
  <advance width="448"/>
  <unicode hex="0138"/>
  <outline>
    <contour>
      <point x="332" y="460" type="line"/>
      <point x="264" y="423"/>
      <point x="206" y="334"/>
      <point x="133" y="216" type="curve"/>
      <point x="119" y="216" type="line"/>
      <point x="102" y="89" type="line"/>
      <point x="212" y="306"/>
      <point x="293" y="409"/>
      <point x="338" y="409" type="curve" smooth="yes"/>
      <point x="352" y="409"/>
      <point x="372" y="397"/>
      <point x="372" y="363" type="curve" smooth="yes"/>
      <point x="372" y="305"/>
      <point x="316" y="248"/>
      <point x="215" y="190" type="curve"/>
      <point x="213" y="179" type="line"/>
      <point x="254" y="116"/>
      <point x="295" y="53"/>
      <point x="340" y="-9" type="curve"/>
      <point x="346" y="-11" type="line"/>
      <point x="386" y="-1" type="line"/>
      <point x="387" y="3" type="line"/>
      <point x="342" y="62"/>
      <point x="300" y="122"/>
      <point x="260" y="183" type="curve"/>
      <point x="362" y="241"/>
      <point x="418" y="305"/>
      <point x="418" y="374" type="curve" smooth="yes"/>
      <point x="418" y="426"/>
      <point x="389" y="453"/>
      <point x="347" y="461" type="curve"/>
    </contour>
    <component base="dotlessi"/>
  </outline>
</glyph>
<glyph name="Lcaron" format="1">
  <advance width="397"/>
  <unicode hex="013D"/>
  <outline>
    <contour>
      <point x="205" y="197" type="move"/>
    </contour>
    <component base="L"/>
    <component base="caron.alt" xOffset="130" yOffset="-91"/>
  </outline>
</glyph>
<glyph name="uogonek" format="1">
  <advance width="463"/>
  <unicode hex="0173"/>
  <outline>
    <contour>
      <point x="310" y="11" type="line"/>
      <point x="226" y="-73"/>
      <point x="206" y="-102"/>
      <point x="206" y="-134" type="curve" smooth="yes"/>
      <point x="206" y="-174"/>
      <point x="236" y="-197"/>
      <point x="270" y="-197" type="curve" smooth="yes"/>
      <point x="302" y="-197"/>
      <point x="329" y="-176"/>
      <point x="352" y="-144" type="curve"/>
      <point x="340" y="-116" type="line"/>
      <point x="338" y="-116" type="line"/>
      <point x="319" y="-145"/>
      <point x="298" y="-161"/>
      <point x="276" y="-161" type="curve" smooth="yes"/>
      <point x="258" y="-161"/>
      <point x="241" y="-151"/>
      <point x="241" y="-127" type="curve" smooth="yes"/>
      <point x="241" y="-103"/>
      <point x="259" y="-78"/>
      <point x="343" y="7" type="curve"/>
    </contour>
    <component base="u"/>
  </outline>
</glyph>
<glyph name="ohorn" format="1">
  <advance width="421"/>
  <unicode hex="01A1"/>
  <outline>
    <contour>
      <point x="419" y="576"/>
      <point x="411" y="572"/>
      <point x="400" y="564" type="curve"/>
      <point x="398" y="558" type="line"/>
      <point x="419" y="536"/>
      <point x="430" y="513"/>
      <point x="430" y="490" type="curve" smooth="yes"/>
      <point x="430" y="453"/>
      <point x="402" y="431"/>
      <point x="364" y="431" type="curve" smooth="yes"/>
      <point x="328" y="431"/>
      <point x="316" y="455"/>
      <point x="266" y="462" type="curve"/>
      <point x="345" y="400" type="line"/>
      <point x="415" y="391"/>
      <point x="471" y="435"/>
      <point x="471" y="498" type="curve" smooth="yes"/>
      <point x="471" y="542"/>
      <point x="443" y="576"/>
      <point x="427" y="576" type="curve" smooth="yes"/>
    </contour>
    <contour>
      <point x="127" y="457"/>
      <point x="47" y="319"/>
      <point x="47" y="145" type="curve" smooth="yes"/>
      <point x="47" y="49"/>
      <point x="77" y="2"/>
      <point x="153" y="-7" type="curve"/>
      <point x="159" y="-7" type="line"/>
      <point x="292" y="2"/>
      <point x="370" y="136"/>
      <point x="370" y="314" type="curve" smooth="yes"/>
      <point x="370" y="365"/>
      <point x="361" y="396"/>
      <point x="344" y="420" type="curve"/>
      <point x="266" y="462" type="line"/>
      <point x="260" y="462" type="line"/>
    </contour>
    <contour>
      <point x="304" y="422"/>
      <point x="324" y="388"/>
      <point x="324" y="309" type="curve" smooth="yes"/>
      <point x="324" y="151"/>
      <point x="263" y="33"/>
      <point x="164" y="33" type="curve" smooth="yes"/>
      <point x="112" y="33"/>
      <point x="92" y="67"/>
      <point x="92" y="147" type="curve" smooth="yes"/>
      <point x="92" y="304"/>
      <point x="153" y="422"/>
      <point x="253" y="422" type="curve" smooth="yes"/>
    </contour>
    <contour>
      <point x="249" y="455" type="move" name="top"/>
    </contour>
  </outline>
</glyph>
<glyph name="oogonek" format="1">
  <advance width="421"/>
  <unicode hex="01EB"/>
  <outline>
    <contour>
      <point x="227" y="36" type="line"/>
      <point x="161" y="-60" type="line" smooth="yes"/>
      <point x="146" y="-82"/>
      <point x="138" y="-104"/>
      <point x="138" y="-127" type="curve" smooth="yes"/>
      <point x="138" y="-169"/>
      <point x="167" y="-198"/>
      <point x="210" y="-198" type="curve" smooth="yes"/>
      <point x="245" y="-198"/>
      <point x="276" y="-178"/>
      <point x="306" y="-143" type="curve"/>
      <point x="295" y="-116" type="line"/>
      <point x="291" y="-116" type="line"/>
      <point x="268" y="-145"/>
      <point x="241" y="-162"/>
      <point x="216" y="-162" type="curve" smooth="yes"/>
      <point x="189" y="-162"/>
      <point x="173" y="-144"/>
      <point x="173" y="-119" type="curve" smooth="yes"/>
      <point x="173" y="-104"/>
      <point x="179" y="-88"/>
      <point x="192" y="-67" type="curve" smooth="yes"/>
      <point x="269" y="47" type="line"/>
    </contour>
    <component base="o"/>
    <contour>
      <point x="306" y="9" type="move" name="_ogonek"/>
    </contour>
  </outline>
</glyph>
<glyph name="dotlessj" format="1">
  <advance width="222"/>
  <unicode hex="0237"/>
  <outline>
    <contour>
      <point x="119" y="449" type="line"/>
      <point x="40" y="449" type="line"/>
      <point x="35" y="419" type="line"/>
      <point x="39" y="414" type="line"/>
      <point x="118" y="414" type="line"/>
      <point x="115" y="362" type="line"/>
      <point x="66" y="11" type="line"/>
      <point x="55" y="-75"/>
      <point x="29" y="-116"/>
      <point x="-40" y="-163" type="curve"/>
      <point x="-41" y="-170" type="line"/>
      <point x="-23" y="-193" type="line"/>
      <point x="64" y="-139"/>
      <point x="98" y="-89"/>
      <point x="112" y="18" type="curve"/>
      <point x="122" y="101" type="line"/>
      <point x="169" y="454" type="line"/>
      <point x="166" y="456" type="line"/>
    </contour>
    <contour>
      <point x="133" y="455" type="move" name="top"/>
    </contour>
  </outline>
</glyph>
<glyph name="circumflex" format="1">
  <advance width="390"/>
  <unicode hex="02C6"/>
  <outline>
    <contour>
      <point x="131" y="516" type="line"/>
      <point x="173" y="553"/>
      <point x="208" y="589"/>
      <point x="244" y="627" type="curve"/>
      <point x="270" y="589"/>
      <point x="297" y="553"/>
      <point x="329" y="516" type="curve"/>
      <point x="336" y="516" type="line"/>
      <point x="353" y="537" type="line"/>
      <point x="321" y="576"/>
      <point x="290" y="618"/>
      <point x="258" y="667" type="curve"/>
      <point x="238" y="667" type="line"/>
      <point x="192" y="617"/>
      <point x="152" y="575"/>
      <point x="112" y="537" type="curve"/>
      <point x="124" y="516" type="line"/>
    </contour>
    <contour>
      <point x="216" y="455" type="move" name="_top"/>
    </contour>
  </outline>
</glyph>
<glyph name="caron" format="1">
  <advance width="390"/>
  <unicode hex="02C7"/>
  <outline>
    <contour>
      <point x="348" y="672" type="line"/>
      <point x="307" y="634"/>
      <point x="271" y="599"/>
      <point x="235" y="561" type="curve"/>
      <point x="209" y="599"/>
      <point x="183" y="634"/>
      <point x="151" y="672" type="curve"/>
      <point x="144" y="672" type="line"/>
      <point x="126" y="651" type="line"/>
      <point x="159" y="612"/>
      <point x="191" y="569"/>
      <point x="223" y="521" type="curve"/>
      <point x="243" y="521" type="line"/>
      <point x="289" y="571"/>
      <point x="328" y="613"/>
      <point x="367" y="651" type="curve"/>
      <point x="355" y="672" type="line"/>
    </contour>
    <contour>
      <point x="230" y="455" type="move" name="_top"/>
    </contour>
  </outline>
</glyph>
<glyph name="firsttonechinese" format="1">
  <advance width="390"/>
  <unicode hex="02C9"/>
  <outline>
    <contour>
      <point x="96" y="620" type="line"/>
      <point x="93" y="589" type="line"/>
      <point x="97" y="584" type="line"/>
      <point x="383" y="584" type="line"/>
      <point x="386" y="616" type="line"/>
      <point x="382" y="620" type="line"/>
    </contour>
  </outline>
</glyph>
<glyph name="ogonek" format="1">
  <advance width="390"/>
  <unicode hex="02DB"/>
  <outline>
    <contour>
      <point x="152" y="32" type="line"/>
      <point x="90" y="-59" type="line" smooth="yes"/>
      <point x="75" y="-81"/>
      <point x="67" y="-103"/>
      <point x="67" y="-126" type="curve" smooth="yes"/>
      <point x="67" y="-168"/>
      <point x="96" y="-197"/>
      <point x="139" y="-197" type="curve" smooth="yes"/>
      <point x="174" y="-197"/>
      <point x="205" y="-177"/>
      <point x="235" y="-142" type="curve"/>
      <point x="224" y="-115" type="line"/>
      <point x="220" y="-115" type="line"/>
      <point x="197" y="-144"/>
      <point x="170" y="-161"/>
      <point x="145" y="-161" type="curve" smooth="yes"/>
      <point x="118" y="-161"/>
      <point x="102" y="-143"/>
      <point x="102" y="-118" type="curve" smooth="yes"/>
      <point x="102" y="-103"/>
      <point x="108" y="-87"/>
      <point x="121" y="-66" type="curve" smooth="yes"/>
      <point x="187" y="32" type="line"/>
    </contour>
    <contour>
      <point x="234" y="10" type="move" name="_ogonek"/>
    </contour>
  </outline>
</glyph>
<glyph name="dotbelowcomb" format="1">
  <advance width="390"/>
  <unicode hex="0323"/>
  <outline>
    <contour>
      <point x="134" y="-80"/>
      <point x="121" y="-93"/>
      <point x="121" y="-113" type="curve" smooth="yes"/>
      <point x="121" y="-132"/>
      <point x="133" y="-145"/>
      <point x="153" y="-145" type="curve" smooth="yes"/>
      <point x="172" y="-145"/>
      <point x="185" y="-131"/>
      <point x="185" y="-111" type="curve" smooth="yes"/>
      <point x="185" y="-92"/>
      <point x="173" y="-80"/>
      <point x="154" y="-80" type="curve" smooth="yes"/>
    </contour>
    <contour>
      <point x="166" y="0" type="move" name="_bottom"/>
    </contour>
  </outline>
</glyph>
<glyph name="Delta" format="1">
  <advance width="537"/>
  <unicode hex="0394"/>
  <outline>
    <contour>
      <point x="300" y="639" type="line"/>
      <point x="-11" y="0" type="line"/>
      <point x="485" y="0" type="line"/>
      <point x="354" y="639" type="line"/>
    </contour>
    <contour>
      <point x="431" y="42" type="line"/>
      <point x="55" y="42" type="line"/>
      <point x="317" y="582" type="line"/>
      <point x="322" y="582" type="line"/>
    </contour>
  </outline>
</glyph>
<glyph name="Omega" format="1">
  <advance width="701"/>
  <unicode hex="03A9"/>
  <outline>
    <contour>
      <point x="212" y="645"/>
      <point x="105" y="503"/>
      <point x="105" y="306" type="curve" smooth="yes"/>
      <point x="105" y="202"/>
      <point x="140" y="104"/>
      <point x="208" y="43" type="curve"/>
      <point x="207" y="40" type="line"/>
      <point x="107" y="40" type="line"/>
      <point x="29" y="43" type="line"/>
      <point x="17" y="3" type="line"/>
      <point x="21" y="-2" type="line"/>
      <point x="98" y="0" type="line"/>
      <point x="228" y="0" type="line"/>
      <point x="265" y="-1" type="line"/>
      <point x="269" y="1" type="line"/>
      <point x="273" y="40" type="line"/>
      <point x="196" y="100"/>
      <point x="154" y="202"/>
      <point x="154" y="309" type="curve" smooth="yes"/>
      <point x="154" y="482"/>
      <point x="242" y="603"/>
      <point x="400" y="603" type="curve" smooth="yes"/>
      <point x="523" y="603"/>
      <point x="582" y="522"/>
      <point x="582" y="398" type="curve" smooth="yes"/>
      <point x="582" y="254"/>
      <point x="508" y="120"/>
      <point x="383" y="40" type="curve"/>
      <point x="378" y="1" type="line"/>
      <point x="381" y="-1" type="line"/>
      <point x="419" y="0" type="line"/>
      <point x="538" y="0" type="line"/>
      <point x="624" y="-2" type="line"/>
      <point x="636" y="39" type="line"/>
      <point x="632" y="44" type="line"/>
      <point x="558" y="40" type="line"/>
      <point x="450" y="40" type="line"/>
      <point x="450" y="43" type="line"/>
      <point x="566" y="128"/>
      <point x="632" y="261"/>
      <point x="632" y="402" type="curve" smooth="yes"/>
      <point x="632" y="546"/>
      <point x="555" y="645"/>
      <point x="403" y="645" type="curve" smooth="yes"/>
    </contour>
    <contour>
      <point x="0" y="639" type="move" name="topleft"/>
    </contour>
  </outline>
</glyph>
<glyph name="mu" format="1">
  <advance width="469"/>
  <unicode hex="03BC"/>
  <outline>
    <contour>
      <point x="261" y="156"/>
      <point x="173" y="45"/>
      <point x="137" y="45" type="curve" smooth="yes"/>
      <point x="122" y="45"/>
      <point x="105" y="61"/>
      <point x="109" y="94" type="curve"/>
      <point x="72" y="69" type="line"/>
      <point x="70" y="28"/>
      <point x="95" y="1"/>
      <point x="129" y="-8" type="curve"/>
      <point x="140" y="-8" type="line"/>
      <point x="206" y="38"/>
      <point x="264" y="122"/>
      <point x="337" y="246" type="curve"/>
      <point x="351" y="246" type="line"/>
      <point x="366" y="368" type="line"/>
    </contour>
    <contour>
      <point x="110" y="454" type="line"/>
      <point x="105" y="360" type="line"/>
      <point x="30" y="-194" type="line"/>
      <point x="79" y="-189" type="line"/>
      <point x="86" y="-81" type="line"/>
      <point x="109" y="94" type="line"/>
      <point x="158" y="459" type="line"/>
    </contour>
    <contour>
      <point x="365" y="454" type="line"/>
      <point x="360" y="360" type="line"/>
      <point x="310" y="-4" type="line"/>
      <point x="359" y="1" type="line"/>
      <point x="366" y="108" type="line"/>
      <point x="414" y="459" type="line"/>
    </contour>
  </outline>
</glyph>
<glyph name="pi" format="1">
  <advance width="590"/>
  <unicode hex="03C0"/>
  <outline>
    <contour>
      <point x="466" y="494" type="line"/>
      <point x="129" y="494" type="line"/>
      <point x="114" y="490" type="line"/>
      <point x="35" y="421" type="line"/>
      <point x="34" y="414" type="line"/>
      <point x="46" y="395" type="line"/>
      <point x="54" y="395" type="line"/>
      <point x="94" y="429"/>
      <point x="121" y="453"/>
      <point x="137" y="453" type="curve" smooth="yes"/>
      <point x="418" y="453" type="line"/>
      <point x="372" y="86" type="line" smooth="yes"/>
      <point x="363" y="20"/>
      <point x="386" y="-4"/>
      <point x="425" y="-4" type="curve" smooth="yes"/>
      <point x="442" y="-4"/>
      <point x="460" y="2"/>
      <point x="477" y="12" type="curve"/>
      <point x="487" y="44" type="line"/>
      <point x="482" y="47" type="line"/>
      <point x="469" y="39"/>
      <point x="453" y="34"/>
      <point x="441" y="34" type="curve" smooth="yes"/>
      <point x="418" y="34"/>
      <point x="411" y="51"/>
      <point x="416" y="90" type="curve" smooth="yes"/>
      <point x="463" y="453" type="line"/>
      <point x="574" y="453" type="line"/>
      <point x="584" y="489" type="line"/>
      <point x="580" y="495" type="line"/>
    </contour>
    <contour>
      <point x="188" y="479" type="line"/>
      <point x="153" y="195" type="line"/>
      <point x="116" y="-96" type="line"/>
      <point x="162" y="-96" type="line"/>
      <point x="198" y="198" type="line"/>
      <point x="233" y="481" type="line"/>
    </contour>
  </outline>
</glyph>
<glyph name="ydotbelow" format="1">
  <advance width="398"/>
  <unicode hex="1EF5"/>
  <outline>
    <contour>
      <point x="243" y="329" type="move"/>
    </contour>
    <component base="y"/>
    <component base="dotbelowcomb" xOffset="93" xScale="0.99" yScale="0.99"/>
  </outline>
</glyph>
<glyph name="quoteright" format="1">
  <advance width="144"/>
  <unicode hex="2019"/>
  <outline>
    <contour>
      <point x="86" y="629"/>
      <point x="76" y="621"/>
      <point x="70" y="613" type="curve"/>
      <point x="70" y="608" type="line"/>
      <point x="97" y="599"/>
      <point x="108" y="583"/>
      <point x="108" y="561" type="curve" smooth="yes"/>
      <point x="108" y="537"/>
      <point x="95" y="509"/>
      <point x="65" y="477" type="curve"/>
      <point x="65" y="472" type="line"/>
      <point x="87" y="456" type="line"/>
      <point x="129" y="500"/>
      <point x="149" y="539"/>
      <point x="149" y="573" type="curve" smooth="yes"/>
      <point x="149" y="605"/>
      <point x="133" y="627"/>
      <point x="97" y="638" type="curve"/>
    </contour>
  </outline>
</glyph>
<glyph name="estimated" format="1">
  <advance width="793"/>
  <unicode hex="212E"/>
  <outline>
    <contour>
      <point x="217" y="649"/>
      <point x="52" y="502"/>
      <point x="52" y="319" type="curve"/>
      <point x="52" y="137"/>
      <point x="217" y="-10"/>
      <point x="419" y="-10" type="curve"/>
      <point x="536" y="-10"/>
      <point x="641" y="39"/>
      <point x="707" y="115" type="curve"/>
      <point x="667" y="115" type="line"/>
      <point x="607" y="52"/>
      <point x="519" y="10"/>
      <point x="420" y="10" type="curve"/>
      <point x="331" y="10"/>
      <point x="249" y="47"/>
      <point x="193" y="104" type="curve"/>
      <point x="188" y="110"/>
      <point x="184" y="117"/>
      <point x="184" y="126" type="curve"/>
      <point x="184" y="307" type="line"/>
      <point x="184" y="311"/>
      <point x="187" y="313"/>
      <point x="190" y="313" type="curve"/>
      <point x="786" y="313" type="line"/>
      <point x="786" y="319" type="line"/>
      <point x="786" y="502"/>
      <point x="622" y="649"/>
      <point x="419" y="649" type="curve"/>
    </contour>
    <contour>
      <point x="508" y="629"/>
      <point x="588" y="595"/>
      <point x="645" y="539" type="curve"/>
      <point x="651" y="533"/>
      <point x="655" y="526"/>
      <point x="655" y="516" type="curve"/>
      <point x="655" y="339" type="line"/>
      <point x="655" y="335"/>
      <point x="652" y="332"/>
      <point x="649" y="332" type="curve"/>
      <point x="191" y="332" type="line"/>
      <point x="187" y="332"/>
      <point x="184" y="335"/>
      <point x="184" y="339" type="curve"/>
      <point x="184" y="512" type="line"/>
      <point x="184" y="522"/>
      <point x="189" y="530"/>
      <point x="195" y="536" type="curve"/>
      <point x="252" y="594"/>
      <point x="331" y="629"/>
      <point x="421" y="629" type="curve"/>
    </contour>
  </outline>
</glyph>
<glyph name="arrowdown" format="1">
  <advance width="508"/>
  <unicode hex="2193"/>
  <outline>
    <contour>
      <point x="433" y="218" type="line"/>
      <point x="254" y="43" type="line"/>
      <point x="74" y="218" type="line"/>
      <point x="65" y="218" type="line"/>
      <point x="55" y="190" type="line"/>
      <point x="250" y="-2" type="line"/>
      <point x="258" y="-2" type="line"/>
      <point x="452" y="190" type="line"/>
      <point x="442" y="218" type="line"/>
    </contour>
    <contour>
      <point x="234" y="455" type="line"/>
      <point x="236" y="29" type="line"/>
      <point x="270" y="29" type="line"/>
      <point x="272" y="456" type="line"/>
      <point x="238" y="459" type="line"/>
    </contour>
  </outline>
</glyph>
<glyph name="radical" format="1">
  <advance width="515"/>
  <unicode hex="221A"/>
  <outline>
    <contour>
      <point x="552" y="710" type="line"/>
      <point x="545" y="706" type="line"/>
      <point x="215" y="52" type="line"/>
      <point x="210" y="52" type="line"/>
      <point x="131" y="451" type="line"/>
      <point x="127" y="455" type="line"/>
      <point x="9" y="455" type="line"/>
      <point x="2" y="421" type="line"/>
      <point x="5" y="418" type="line"/>
      <point x="94" y="418" type="line"/>
      <point x="179" y="0" type="line"/>
      <point x="230" y="0" type="line"/>
      <point x="589" y="710" type="line"/>
    </contour>
  </outline>
</glyph>
<glyph name="infinity" format="1">
  <advance width="481"/>
  <unicode hex="221E"/>
  <outline>
    <contour>
      <point x="316" y="397"/>
      <point x="273" y="346"/>
      <point x="249" y="306" type="curve"/>
      <point x="230" y="353"/>
      <point x="201" y="397"/>
      <point x="135" y="397" type="curve" smooth="yes"/>
      <point x="54" y="397"/>
      <point x="0" y="338"/>
      <point x="0" y="248" type="curve" smooth="yes"/>
      <point x="0" y="181"/>
      <point x="38" y="135"/>
      <point x="104" y="135" type="curve" smooth="yes"/>
      <point x="168" y="135"/>
      <point x="209" y="178"/>
      <point x="242" y="234" type="curve"/>
      <point x="263" y="179"/>
      <point x="291" y="135"/>
      <point x="356" y="135" type="curve" smooth="yes"/>
      <point x="432" y="135"/>
      <point x="489" y="191"/>
      <point x="489" y="283" type="curve" smooth="yes"/>
      <point x="489" y="349"/>
      <point x="453" y="397"/>
      <point x="386" y="397" type="curve" smooth="yes"/>
    </contour>
    <contour>
      <point x="193" y="363"/>
      <point x="214" y="320"/>
      <point x="229" y="271" type="curve"/>
      <point x="200" y="220"/>
      <point x="167" y="171"/>
      <point x="108" y="171" type="curve" smooth="yes"/>
      <point x="61" y="171"/>
      <point x="34" y="203"/>
      <point x="34" y="254" type="curve" smooth="yes"/>
      <point x="34" y="320"/>
      <point x="73" y="363"/>
      <point x="134" y="363" type="curve" smooth="yes"/>
    </contour>
    <contour>
      <point x="431" y="362"/>
      <point x="457" y="327"/>
      <point x="457" y="278" type="curve" smooth="yes"/>
      <point x="457" y="210"/>
      <point x="416" y="169"/>
      <point x="360" y="169" type="curve" smooth="yes"/>
      <point x="302" y="169"/>
      <point x="280" y="214"/>
      <point x="262" y="265" type="curve"/>
      <point x="287" y="312"/>
      <point x="320" y="362"/>
      <point x="381" y="362" type="curve" smooth="yes"/>
    </contour>
  </outline>
</glyph>
<glyph name="lozenge" format="1">
  <advance width="489"/>
  <unicode hex="25CA"/>
  <outline>
    <contour>
      <point x="269" y="640" type="line"/>
      <point x="66" y="291" type="line"/>
      <point x="64" y="272" type="line"/>
      <point x="183" y="-76" type="line"/>
      <point x="186" y="-79" type="line"/>
      <point x="222" y="-78" type="line"/>
      <point x="425" y="272" type="line"/>
      <point x="428" y="292" type="line"/>
      <point x="309" y="639" type="line"/>
      <point x="306" y="642" type="line"/>
    </contour>
    <contour>
      <point x="392" y="282" type="line"/>
      <point x="212" y="-30" type="line"/>
      <point x="208" y="-30" type="line"/>
      <point x="101" y="280" type="line"/>
      <point x="281" y="593" type="line"/>
      <point x="285" y="593" type="line"/>
    </contour>
  </outline>
</glyph>
<glyph name="fi" format="1">
  <advance width="479"/>
  <unicode hex="FB01"/>
  <outline>
    <contour>
      <point x="227" y="705"/>
      <point x="170" y="643"/>
      <point x="152" y="534" type="curve" smooth="yes"/>
      <point x="107" y="190" type="line"/>
      <point x="64" y="-131" type="line"/>
      <point x="115" y="-125" type="line"/>
      <point x="122" y="-19" type="line"/>
      <point x="150" y="195" type="line"/>
      <point x="196" y="544" type="line" smooth="yes"/>
      <point x="209" y="623"/>
      <point x="252" y="667"/>
      <point x="315" y="667" type="curve" smooth="yes"/>
      <point x="343" y="667"/>
      <point x="374" y="655"/>
      <point x="400" y="638" type="curve"/>
      <point x="409" y="638" type="line"/>
      <point x="422" y="679" type="line"/>
      <point x="419" y="683" type="line"/>
      <point x="328" y="705" type="line"/>
    </contour>
    <contour>
      <point x="68" y="449" type="line"/>
      <point x="63" y="419" type="line"/>
      <point x="67" y="414" type="line"/>
      <point x="402" y="414" type="line"/>
      <point x="407" y="444" type="line"/>
      <point x="403" y="449" type="line"/>
    </contour>
    <contour>
      <point x="375" y="448" type="line"/>
      <point x="370" y="360" type="line"/>
      <point x="320" y="-4" type="line"/>
      <point x="372" y="1" type="line"/>
      <point x="378" y="108" type="line"/>
      <point x="425" y="455" type="line"/>
      <point x="420" y="459" type="line"/>
    </contour>
    <contour>
      <point x="402" y="455" type="move" name="_top"/>
    </contour>
    <contour>
      <point x="432" y="10" type="move" name="ogonek"/>
    </contour>
    <contour>
      <point x="402" y="455" type="move" name="top"/>
    </contour>
  </outline>
</glyph>
<glyph name="V.ss01" format="1">
  <advance width="461"/>
  <outline>
    <contour>
      <point x="426" y="490" type="line"/>
      <point x="408" y="444" type="line"/>
      <point x="209" y="53" type="line"/>
      <point x="205" y="53" type="line"/>
      <point x="118" y="446" type="line"/>
      <point x="112" y="490" type="line"/>
      <point x="66" y="490" type="line"/>
      <point x="174" y="4" type="line"/>
      <point x="226" y="4" type="line"/>
      <point x="472" y="490" type="line" smooth="yes"/>
    </contour>
    <contour>
      <point x="-120" y="27" type="line"/>
      <point x="-123" y="0" type="line"/>
      <point x="530" y="0" type="line"/>
      <point x="533" y="27" type="line"/>
    </contour>
    <contour>
      <point x="-61" y="494" type="line"/>
      <point x="-64" y="468" type="line"/>
      <point x="589" y="468" type="line"/>
      <point x="592" y="494" type="line"/>
    </contour>
  </outline>
</glyph>
<glyph name="a.sups" format="1">
  <advance width="305"/>
  <outline>
    <contour>
      <point x="295" y="647" type="line"/>
      <point x="258" y="635" type="line"/>
      <point x="253" y="577" type="line"/>
      <point x="223" y="340" type="line"/>
      <point x="265" y="344" type="line"/>
      <point x="270" y="414" type="line"/>
      <point x="301" y="643" type="line"/>
      <point x="295" y="647" type="line"/>
    </contour>
    <contour>
      <point x="169" y="464" type="line"/>
      <point x="169" y="464" type="line"/>
    </contour>
    <contour>
      <point x="219" y="644" type="line"/>
      <point x="119" y="630"/>
      <point x="67" y="538"/>
      <point x="67" y="437" type="curve" smooth="yes"/>
      <point x="67" y="384"/>
      <point x="79" y="357"/>
      <point x="116" y="340" type="curve"/>
      <point x="125" y="340" type="line"/>
      <point x="165" y="377"/>
      <point x="204" y="431"/>
      <point x="237" y="492" type="curve"/>
      <point x="242" y="492" type="line"/>
      <point x="258" y="573" type="line"/>
      <point x="200" y="450"/>
      <point x="139" y="380"/>
      <point x="128" y="380" type="curve" smooth="yes"/>
      <point x="120" y="380"/>
      <point x="105" y="398"/>
      <point x="105" y="451" type="curve" smooth="yes"/>
      <point x="105" y="537"/>
      <point x="146" y="612"/>
      <point x="215" y="613" type="curve"/>
      <point x="271" y="605" type="line"/>
      <point x="290" y="636" type="line"/>
      <point x="222" y="644" type="line"/>
      <point x="219" y="644" type="line"/>
    </contour>
    <contour>
      <point x="195" y="4" type="move" name="ogonek"/>
    </contour>
    <contour>
      <point x="123" y="198" type="move" name="top"/>
    </contour>
  </outline>
</glyph>
<glyph name="circumflextilde" format="1">
  <advance width="390"/>
  <outline>
    <contour>
      <point x="227" y="640" type="line"/>
      <point x="191" y="612"/>
      <point x="153" y="583"/>
      <point x="112" y="557" type="curve"/>
      <point x="120" y="534" type="line"/>
      <point x="128" y="534" type="line"/>
      <point x="164" y="556"/>
      <point x="200" y="579"/>
      <point x="234" y="602" type="curve"/>
      <point x="264" y="579"/>
      <point x="293" y="556"/>
      <point x="324" y="534" type="curve"/>
      <point x="331" y="534" type="line"/>
      <point x="345" y="557" type="line"/>
      <point x="311" y="583"/>
      <point x="278" y="612"/>
      <point x="246" y="640" type="curve"/>
    </contour>
    <contour>
      <point x="377" y="752" type="line"/>
      <point x="353" y="728"/>
      <point x="339" y="709"/>
      <point x="327" y="709" type="curve"/>
      <point x="303" y="709"/>
      <point x="217" y="741"/>
      <point x="180" y="746" type="curve"/>
      <point x="172" y="743" type="line"/>
      <point x="119" y="687" type="line"/>
      <point x="119" y="681" type="line"/>
      <point x="135" y="664" type="line"/>
      <point x="141" y="664" type="line"/>
      <point x="165" y="688"/>
      <point x="179" y="707"/>
      <point x="191" y="707" type="curve"/>
      <point x="215" y="707"/>
      <point x="301" y="674"/>
      <point x="338" y="670" type="curve"/>
      <point x="345" y="672" type="line"/>
      <point x="399" y="729" type="line"/>
      <point x="399" y="735" type="line"/>
      <point x="383" y="752" type="line"/>
    </contour>
    <contour>
      <point x="214" y="455" type="move" name="_top"/>
    </contour>
  </outline>
</glyph>
<glyph name="down" format="1">
  <advance width="406"/>
  <outline>
    <contour>
      <point x="65" y="352" type="line"/>
      <point x="203" y="75" type="line"/>
      <point x="341" y="352" type="line"/>
    </contour>
  </outline>
</glyph>
<glyph name="e.sups" format="1">
  <advance width="257"/>
  <outline>
    <contour>
      <point x="99" y="455" type="line"/>
      <point x="218" y="494"/>
      <point x="273" y="539"/>
      <point x="273" y="591" type="curve" smooth="yes"/>
      <point x="273" y="622"/>
      <point x="252" y="641"/>
      <point x="216" y="646" type="curve"/>
      <point x="210" y="646" type="line"/>
      <point x="128" y="642"/>
      <point x="69" y="561"/>
      <point x="68" y="445" type="curve"/>
      <point x="68" y="381"/>
      <point x="89" y="346"/>
      <point x="146" y="340" type="curve"/>
      <point x="153" y="340" type="line"/>
      <point x="194" y="346"/>
      <point x="227" y="369"/>
      <point x="255" y="413" type="curve"/>
      <point x="242" y="430" type="line"/>
      <point x="234" y="431" type="line"/>
      <point x="212" y="392"/>
      <point x="185" y="371"/>
      <point x="154" y="371" type="curve" smooth="yes"/>
      <point x="123" y="371"/>
      <point x="107" y="396"/>
      <point x="107" y="454" type="curve" smooth="yes"/>
      <point x="107" y="550"/>
      <point x="149" y="616"/>
      <point x="203" y="616" type="curve" smooth="yes"/>
      <point x="225" y="616"/>
      <point x="236" y="604"/>
      <point x="236" y="587" type="curve" smooth="yes"/>
      <point x="236" y="548"/>
      <point x="187" y="512"/>
      <point x="99" y="482" type="curve"/>
    </contour>
    <contour>
      <point x="102" y="0" type="move" name="bottom"/>
    </contour>
    <contour>
      <point x="166" y="4" type="move" name="ogonek"/>
    </contour>
    <contour>
      <point x="113" y="198" type="move" name="top"/>
    </contour>
  </outline>
</glyph>
<glyph name="f.l" format="1">
  <advance width="268"/>
  <outline>
    <contour>
      <point x="226" y="708"/>
      <point x="169" y="648"/>
      <point x="154" y="538" type="curve" smooth="yes"/>
      <point x="108" y="190" type="line"/>
      <point x="65" y="-131" type="line"/>
      <point x="116" y="-125" type="line"/>
      <point x="123" y="-19" type="line"/>
      <point x="151" y="195" type="line"/>
      <point x="197" y="547" type="line" smooth="yes"/>
      <point x="209" y="627"/>
      <point x="253" y="670"/>
      <point x="320" y="670" type="curve" smooth="yes"/>
      <point x="354" y="670"/>
      <point x="388" y="663"/>
      <point x="420" y="653" type="curve"/>
      <point x="428" y="655" type="line"/>
      <point x="439" y="693" type="line"/>
      <point x="437" y="697" type="line"/>
      <point x="331" y="708" type="line"/>
    </contour>
    <contour>
      <point x="68" y="449" type="line"/>
      <point x="63" y="419" type="line"/>
      <point x="67" y="414" type="line"/>
      <point x="295" y="414" type="line"/>
      <point x="301" y="444" type="line"/>
      <point x="296" y="449" type="line"/>
    </contour>
  </outline>
</glyph>
<glyph name="four.lf" format="1">
  <advance width="485"/>
  <outline>
    <contour>
      <point x="332" y="586" type="line"/>
      <point x="34" y="220" type="line"/>
      <point x="30" y="186" type="line"/>
      <point x="34" y="181" type="line"/>
      <point x="87" y="182" type="line"/>
      <point x="349" y="182" type="line"/>
      <point x="430" y="181" type="line"/>
      <point x="439" y="216" type="line"/>
      <point x="434" y="222" type="line"/>
      <point x="81" y="222" type="line"/>
      <point x="326" y="520" type="line"/>
      <point x="331" y="520" type="line"/>
      <point x="292" y="208" type="line"/>
      <point x="265" y="0" type="line"/>
      <point x="268" y="-4" type="line"/>
      <point x="305" y="-0" type="line"/>
      <point x="309" y="4" type="line"/>
      <point x="332" y="203" type="line"/>
      <point x="379" y="586" type="line"/>
    </contour>
  </outline>
</glyph>
<glyph name="four.tosf" format="1">
  <advance width="476"/>
  <outline>
    <contour>
      <point x="321" y="494" type="line"/>
      <point x="22" y="127" type="line"/>
      <point x="18" y="93" type="line"/>
      <point x="22" y="87" type="line"/>
      <point x="75" y="89" type="line"/>
      <point x="338" y="89" type="line"/>
      <point x="418" y="87" type="line"/>
      <point x="427" y="123" type="line"/>
      <point x="422" y="128" type="line"/>
      <point x="69" y="128" type="line"/>
      <point x="314" y="428" type="line"/>
      <point x="320" y="428" type="line"/>
      <point x="281" y="115" type="line"/>
      <point x="254" y="-93" type="line"/>
      <point x="257" y="-98" type="line"/>
      <point x="294" y="-94" type="line"/>
      <point x="298" y="-89" type="line"/>
      <point x="320" y="110" type="line"/>
      <point x="368" y="494" type="line"/>
    </contour>
  </outline>
</glyph>
<glyph name="i.sups" format="1">
  <advance width="152"/>
  <outline>
    <contour>
      <point x="146" y="643" type="line"/>
      <point x="104" y="640" type="line"/>
      <point x="101" y="577" type="line"/>
      <point x="69" y="340" type="line"/>
      <point x="112" y="344" type="line"/>
      <point x="117" y="414" type="line"/>
      <point x="146" y="643" type="line"/>
    </contour>
    <contour>
      <point x="126" y="776"/>
      <point x="114" y="764"/>
      <point x="114" y="745" type="curve" smooth="yes"/>
      <point x="114" y="732"/>
      <point x="123" y="724"/>
      <point x="137" y="724" type="curve" smooth="yes"/>
      <point x="155" y="724"/>
      <point x="166" y="737"/>
      <point x="166" y="755" type="curve" smooth="yes"/>
      <point x="166" y="768"/>
      <point x="158" y="776"/>
      <point x="143" y="776" type="curve" smooth="yes"/>
    </contour>
    <contour>
      <point x="7" y="0" type="move" name="_top"/>
    </contour>
    <contour>
      <point x="7" y="0" type="move" name="ogonek"/>
    </contour>
    <contour>
      <point x="7" y="0" type="move" name="top"/>
    </contour>
  </outline>
</glyph>
<glyph name="o.sups" format="1">
  <advance width="289"/>
  <outline>
    <contour>
      <point x="210" y="646" type="line"/>
      <point x="120" y="642"/>
      <point x="66" y="557"/>
      <point x="66" y="439" type="curve" smooth="yes"/>
      <point x="66" y="375"/>
      <point x="90" y="343"/>
      <point x="138" y="339" type="curve"/>
      <point x="143" y="339" type="line"/>
      <point x="232" y="344"/>
      <point x="286" y="428"/>
      <point x="286" y="549" type="curve" smooth="yes"/>
      <point x="286" y="610"/>
      <point x="262" y="640"/>
      <point x="215" y="646" type="curve"/>
      <point x="210" y="646" type="line"/>
    </contour>
    <contour>
      <point x="234" y="614"/>
      <point x="246" y="592"/>
      <point x="246" y="545" type="curve" smooth="yes"/>
      <point x="246" y="441"/>
      <point x="210" y="370"/>
      <point x="149" y="370" type="curve" smooth="yes"/>
      <point x="118" y="370"/>
      <point x="105" y="391"/>
      <point x="105" y="440" type="curve" smooth="yes"/>
      <point x="105" y="541"/>
      <point x="142" y="614"/>
      <point x="204" y="614" type="curve" smooth="yes"/>
    </contour>
  </outline>
</glyph>
<glyph name="one.dnom" format="1">
  <advance width="249"/>
  <outline>
    <contour>
      <point x="29" y="340" type="line"/>
      <point x="25" y="308" type="line"/>
      <point x="29" y="305" type="line"/>
      <point x="124" y="329" type="line"/>
      <point x="99" y="126" type="line"/>
      <point x="83" y="0" type="line"/>
      <point x="125" y="0" type="line"/>
      <point x="140" y="132" type="line"/>
      <point x="171" y="373" type="line"/>
      <point x="166" y="378" type="line"/>
    </contour>
  </outline>
</glyph>
<glyph name="one.tf" format="1">
  <advance width="475"/>
  <outline>
    <contour>
      <point x="83" y="537" type="line"/>
      <point x="78" y="499" type="line"/>
      <point x="84" y="495" type="line"/>
      <point x="268" y="536" type="line"/>
      <point x="227" y="199" type="line"/>
      <point x="200" y="0" type="line"/>
      <point x="248" y="0" type="line"/>
      <point x="272" y="206" type="line"/>
      <point x="321" y="587" type="line"/>
      <point x="313" y="593" type="line"/>
    </contour>
  </outline>
</glyph>
<glyph name="seven.dnom" format="1">
  <advance width="294"/>
  <outline>
    <contour>
      <point x="41" y="341" type="line"/>
      <point x="43" y="335" type="line"/>
      <point x="90" y="338" type="line"/>
      <point x="235" y="338" type="line"/>
      <point x="40" y="10" type="line"/>
      <point x="41" y="3" type="line"/>
      <point x="75" y="-6" type="line"/>
      <point x="114" y="64" type="line"/>
      <point x="279" y="342" type="line"/>
      <point x="283" y="374" type="line"/>
      <point x="256" y="373" type="line"/>
      <point x="103" y="373" type="line"/>
      <point x="48" y="374" type="line"/>
    </contour>
  </outline>
</glyph>
<glyph name="seven.tosf" format="1">
  <advance width="476"/>
  <outline>
    <contour>
      <point x="78" y="455" type="line"/>
      <point x="82" y="449" type="line"/>
      <point x="151" y="453" type="line"/>
      <point x="403" y="453" type="line"/>
      <point x="75" y="-83" type="line"/>
      <point x="76" y="-91" type="line"/>
      <point x="117" y="-104" type="line"/>
      <point x="172" y="-2" type="line"/>
      <point x="453" y="459" type="line"/>
      <point x="456" y="496" type="line"/>
      <point x="414" y="494" type="line"/>
      <point x="166" y="494" type="line"/>
      <point x="87" y="496" type="line"/>
    </contour>
  </outline>
</glyph>
<glyph name="six.dnom" format="1">
  <advance width="329"/>
  <outline>
    <contour>
      <point x="254" y="378" type="line"/>
      <point x="123" y="331"/>
      <point x="41" y="243"/>
      <point x="29" y="133" type="curve"/>
      <point x="20" y="45"/>
      <point x="60" y="-4"/>
      <point x="138" y="-4" type="curve"/>
      <point x="222" y="-4"/>
      <point x="268" y="43"/>
      <point x="276" y="115" type="curve"/>
      <point x="283" y="179"/>
      <point x="247" y="220"/>
      <point x="179" y="220" type="curve" smooth="yes"/>
      <point x="145" y="220"/>
      <point x="114" y="208"/>
      <point x="85" y="189" type="curve"/>
      <point x="78" y="199" type="line"/>
      <point x="67" y="152" type="line"/>
      <point x="97" y="175"/>
      <point x="132" y="189"/>
      <point x="167" y="189" type="curve" smooth="yes"/>
      <point x="216" y="189"/>
      <point x="242" y="162"/>
      <point x="237" y="111" type="curve"/>
      <point x="230" y="56"/>
      <point x="196" y="25"/>
      <point x="141" y="25" type="curve"/>
      <point x="85" y="25"/>
      <point x="62" y="64"/>
      <point x="69" y="134" type="curve"/>
      <point x="80" y="239"/>
      <point x="147" y="309"/>
      <point x="280" y="354" type="curve"/>
      <point x="281" y="359" type="line"/>
      <point x="257" y="378" type="line"/>
    </contour>
  </outline>
</glyph>
<glyph name="six.tf" format="1">
  <advance width="475"/>
  <outline>
    <contour>
      <point x="402" y="593" type="line"/>
      <point x="132" y="499"/>
      <point x="54" y="308"/>
      <point x="54" y="175" type="curve" smooth="yes"/>
      <point x="54" y="63"/>
      <point x="110" y="-7"/>
      <point x="219" y="-7" type="curve"/>
      <point x="376" y="-7"/>
      <point x="415" y="120"/>
      <point x="415" y="194" type="curve" smooth="yes"/>
      <point x="415" y="284"/>
      <point x="356" y="341"/>
      <point x="265" y="341" type="curve" smooth="yes"/>
      <point x="211" y="341"/>
      <point x="166" y="322"/>
      <point x="122" y="290" type="curve"/>
      <point x="113" y="300" type="line"/>
      <point x="98" y="234" type="line"/>
      <point x="146" y="278"/>
      <point x="202" y="303"/>
      <point x="257" y="303" type="curve" smooth="yes"/>
      <point x="329" y="303"/>
      <point x="370" y="262"/>
      <point x="370" y="189" type="curve" smooth="yes"/>
      <point x="370" y="123"/>
      <point x="340" y="31"/>
      <point x="222" y="31" type="curve"/>
      <point x="133" y="31"/>
      <point x="99" y="91"/>
      <point x="99" y="179" type="curve" smooth="yes"/>
      <point x="99" y="305"/>
      <point x="162" y="473"/>
      <point x="439" y="564" type="curve"/>
      <point x="439" y="570" type="line"/>
      <point x="407" y="593" type="line"/>
    </contour>
  </outline>
</glyph>
<glyph name="uni0066006A" format="1">
  <advance width="481"/>
  <outline>
    <contour>
      <point x="227" y="705"/>
      <point x="170" y="643"/>
      <point x="152" y="534" type="curve" smooth="yes"/>
      <point x="107" y="190" type="line"/>
      <point x="64" y="-131" type="line"/>
      <point x="115" y="-125" type="line"/>
      <point x="122" y="-19" type="line"/>
      <point x="150" y="195" type="line"/>
      <point x="196" y="544" type="line" smooth="yes"/>
      <point x="209" y="623"/>
      <point x="251" y="667"/>
      <point x="315" y="667" type="curve" smooth="yes"/>
      <point x="343" y="667"/>
      <point x="373" y="655"/>
      <point x="400" y="638" type="curve"/>
      <point x="409" y="638" type="line"/>
      <point x="421" y="679" type="line"/>
      <point x="419" y="683" type="line"/>
      <point x="328" y="705" type="line"/>
    </contour>
    <contour>
      <point x="68" y="449" type="line"/>
      <point x="63" y="419" type="line"/>
      <point x="67" y="414" type="line"/>
      <point x="401" y="414" type="line"/>
      <point x="407" y="444" type="line"/>
      <point x="402" y="449" type="line"/>
    </contour>
    <contour>
      <point x="375" y="448" type="line"/>
      <point x="370" y="360" type="line"/>
      <point x="322" y="11" type="line"/>
      <point x="377" y="101" type="line"/>
      <point x="424" y="455" type="line"/>
      <point x="420" y="459" type="line"/>
    </contour>
    <contour>
      <point x="322" y="11" type="line"/>
      <point x="311" y="-75"/>
      <point x="286" y="-116"/>
      <point x="221" y="-163" type="curve"/>
      <point x="220" y="-170" type="line"/>
      <point x="237" y="-193" type="line"/>
      <point x="321" y="-139"/>
      <point x="353" y="-89"/>
      <point x="367" y="18" type="curve"/>
      <point x="377" y="101" type="line"/>
    </contour>
  </outline>
</glyph>
<glyph name="x.sups" format="1">
  <advance width="299"/>
  <outline>
    <contour>
      <point x="208" y="494" type="line"/>
      <point x="320" y="640" type="line"/>
      <point x="275" y="640" type="line"/>
      <point x="260" y="616" type="line"/>
      <point x="188" y="525" type="line"/>
      <point x="140" y="619" type="line"/>
      <point x="130" y="645" type="line"/>
      <point x="87" y="638" type="line"/>
      <point x="156" y="497" type="line"/>
      <point x="40" y="343" type="line"/>
      <point x="87" y="343" type="line"/>
      <point x="102" y="369" type="line"/>
      <point x="179" y="469" type="line"/>
      <point x="229" y="371" type="line"/>
      <point x="239" y="340" type="line"/>
      <point x="284" y="346" type="line"/>
      <point x="208" y="494" type="line"/>
    </contour>
  </outline>
</glyph>
<glyph name="zero.dnom" format="1">
  <advance width="376"/>
  <outline>
    <contour>
      <point x="99" y="375"/>
      <point x="38" y="288"/>
      <point x="38" y="146" type="curve" smooth="yes"/>
      <point x="38" y="50"/>
      <point x="80" y="-4"/>
      <point x="158" y="-4" type="curve" smooth="yes"/>
      <point x="267" y="-4"/>
      <point x="327" y="84"/>
      <point x="327" y="226" type="curve" smooth="yes"/>
      <point x="327" y="322"/>
      <point x="285" y="375"/>
      <point x="208" y="375" type="curve" smooth="yes"/>
    </contour>
    <contour>
      <point x="260" y="336"/>
      <point x="292" y="294"/>
      <point x="292" y="217" type="curve" smooth="yes"/>
      <point x="292" y="103"/>
      <point x="247" y="34"/>
      <point x="165" y="34" type="curve" smooth="yes"/>
      <point x="105" y="34"/>
      <point x="74" y="76"/>
      <point x="74" y="154" type="curve" smooth="yes"/>
      <point x="74" y="268"/>
      <point x="119" y="336"/>
      <point x="200" y="336" type="curve" smooth="yes"/>
    </contour>
  </outline>
</glyph>
